<?xml version="1.0" encoding="iso-8859-1"?>
<!-- Generator: Adobe Illustrator 18.0.0, SVG Export Plug-In . SVG Version: 6.00 Build 0)  -->
<!DOCTYPE svg PUBLIC "-//W3C//DTD SVG 1.1//EN" "http://www.w3.org/Graphics/SVG/1.1/DTD/svg11.dtd">
<svg version="1.1" id="_x33_" xmlns="http://www.w3.org/2000/svg" xmlns:xlink="http://www.w3.org/1999/xlink" x="0px" y="0px"
	 viewBox="0 0 512 512" style="enable-background:new 0 0 512 512;" xml:space="preserve">
<g>
	<rect style="fill:#E17B80;" width="512" height="512"/>
	<path style="opacity:0.1;fill:#040000;" d="M349.747,107.161h-46.848c-5.632,0-10.189,4.609-10.189,10.189v4.609
		c0,3.584,1.843,6.758,4.71,8.55c-0.256,1.536-0.358,3.072-0.358,4.608v40.353l-22.057-22.057c-0.053-0.394-0.082-0.788-0.163-1.195
		c-0.103-0.563-0.256-1.075-0.41-1.638c-0.154-0.512-0.307-1.024-0.512-1.536c-0.307-1.024-0.717-2.048-1.229-3.021
		c-0.205-0.41-0.409-0.768-0.614-1.126c-0.307-0.615-0.666-1.178-1.075-1.792c-0.461-0.665-0.922-1.28-1.434-1.842
		c-0.41-0.564-0.921-1.076-1.434-1.588c-0.717-0.717-1.434-1.382-2.202-1.997c-0.358-0.307-0.717-0.563-1.075-0.819
		c-0.358-0.256-0.768-0.512-1.178-0.768c-1.177-0.717-2.355-1.382-3.635-1.895c-0.051-0.051-0.103-0.051-0.154-0.051
		c-0.614-0.256-1.229-0.512-1.843-0.716c-0.051,0-0.051,0-0.051,0c-0.307-0.103-0.666-0.205-0.973-0.308
		c-0.358-0.102-0.666-0.154-1.024-0.256c-0.87-0.204-1.792-0.409-2.662-0.512c-0.973-0.153-1.946-0.204-2.918-0.204
		c-6.861,0-13.056,2.816-17.562,7.321c-4.506,4.506-7.321,10.701-7.321,17.561v17.426l-23.392-23.392
		c-2.706-10.805-12.466-18.916-24.071-18.916h-0.051l-24.832,24.781c0,0.051,0,0.051,0,0.102v87.143l-54.016-33.229l-7.987,7.988
		l-1.28,1.331h-0.051l3.84,51.303L96,302.899l6.656,90.522h0.051l0.103,1.382L220.007,512H512V269.414L349.747,107.161z"/>
	<polygon style="fill:none;" points="297.049,214.92 288.049,223.92 297.049,229.72 	"/>
	<g>
		<g>
			<g>
				<g>
					<path style="fill:#96C9BA;" d="M275.302,157.03v143.565c0,9.575-5.478,17.92-13.466,22.068
						c-1.843,0.973-3.789,1.689-5.837,2.15c-1.792,0.461-3.686,0.666-5.581,0.666c-4.147,0-7.987-1.024-11.417-2.816
						c-7.988-4.147-13.466-12.492-13.466-22.068V157.03c0-6.86,2.816-13.056,7.321-17.561c4.506-4.506,10.701-7.321,17.562-7.321
						c3.358,0,6.55,0.724,9.48,1.972c0.044,0.019,0.09,0.033,0.134,0.051c1.267,0.549,2.497,1.168,3.647,1.919
						c0.41,0.256,0.819,0.511,1.178,0.768c0.358,0.256,0.717,0.512,1.075,0.819c0.768,0.614,1.485,1.28,2.202,1.997
						c0.512,0.512,1.024,1.024,1.434,1.588c0.512,0.563,0.973,1.177,1.434,1.842c0.409,0.615,0.768,1.177,1.075,1.792
						c0.205,0.358,0.41,0.716,0.614,1.126c0.512,0.972,0.922,1.997,1.229,3.021c0.205,0.512,0.358,1.024,0.512,1.536
						c0.153,0.563,0.307,1.075,0.41,1.638c0.153,0.768,0.256,1.485,0.307,2.253C275.251,155.341,275.302,156.16,275.302,157.03z"/>
					<path style="fill:#96C9BA;" d="M202.957,157.03v143.565c0,5.684-1.946,10.906-5.223,15.104
						c-2.15,2.867-4.966,5.273-8.243,6.963c-3.43,1.792-7.27,2.816-11.417,2.816c-4.147,0-7.987-1.024-11.417-2.816
						c-7.987-4.147-13.466-12.492-13.466-22.068V157.03c0-0.051,0-0.051,0-0.102c0.051-6.809,2.816-12.954,7.322-17.459
						c4.506-4.506,10.65-7.321,17.51-7.321h0.051C191.744,132.148,202.957,143.36,202.957,157.03z"/>
					<path style="fill:#B8C6C6;" d="M358.349,135.117v176.844c0,3.738-0.666,7.373-1.997,10.701
						c-0.666,1.997-1.639,3.84-2.765,5.581c-5.427,8.602-15.053,14.336-25.907,14.336c-3.328,0-6.553-0.512-9.523-1.536
						c-10.138-3.328-17.971-11.827-20.326-22.374c-0.512-2.15-0.768-4.403-0.768-6.707V135.117c0-1.536,0.103-3.072,0.358-4.608
						c0.819-5.479,3.123-10.496,6.503-14.643c0.666-0.819,1.382-1.638,2.15-2.356c2.611-2.662,5.734-4.813,9.165-6.349h24.934
						c4.404,1.997,8.294,5.018,11.315,8.704c3.379,4.147,5.683,9.164,6.503,14.643C358.195,132.045,358.349,133.581,358.349,135.117
						z"/>
				</g>
				<path style="opacity:0.1;fill:#040000;" d="M358.349,135.117v3.891c-0.103,0.102-0.205,0.153-0.358,0.256
					c-1.587,0.973-3.482,1.588-5.478,1.588h-49.613c-1.997,0-3.891-0.614-5.478-1.588c-0.154-0.102-0.256-0.154-0.358-0.256v-3.891
					c0-1.536,0.103-3.072,0.358-4.608c0.819-5.479,3.123-10.496,6.503-14.643h47.565c3.379,4.147,5.683,9.164,6.503,14.643
					C358.195,132.045,358.349,133.581,358.349,135.117z"/>
				<path style="fill:#B8C6C6;" d="M362.701,117.35v4.609c0,3.584-1.894,6.758-4.71,8.55c-1.587,1.024-3.482,1.639-5.478,1.639
					h-49.613c-1.997,0-3.891-0.615-5.478-1.639c-2.867-1.792-4.71-4.966-4.71-8.55v-4.609c0-5.58,4.557-10.189,10.189-10.189h49.613
					C358.093,107.161,362.701,111.77,362.701,117.35z"/>
			</g>
			<polygon style="fill:#B4B3B3;" points="423.219,257.792 422.247,270.541 422.247,270.643 420.967,288.461 419.891,303.258 
				417.741,332.441 414.106,381.696 413.235,393.421 102.656,393.421 96,302.899 93.696,271.565 89.907,220.262 89.754,218.214 
				89.754,218.061 88.73,204.544 99.174,210.944 153.191,244.173 175.258,257.792 175.309,257.792 173.875,218.163 173.875,218.061 
				173.363,204.544 202.957,223.181 225.536,237.414 256,256.563 257.946,257.792 257.946,204.544 275.302,215.706 297.063,229.734 
				340.531,257.792 340.582,257.792 342.016,217.959 342.528,204.544 358.349,214.989 			"/>
			<polygon style="fill:#F2F2F2;" points="422.298,270.694 420.967,288.461 419.891,303.258 417.741,332.441 414.157,381.696 
				414.106,381.696 413.235,393.421 412.365,404.788 103.527,404.788 102.81,394.803 102.707,393.421 96,302.899 93.696,271.565 
				89.856,220.262 89.702,218.163 89.754,218.214 89.754,218.061 91.187,218.931 153.191,256.819 175.77,270.643 175.258,257.792 
				173.773,218.112 173.875,218.163 173.875,218.061 202.957,236.237 225.536,250.368 256,269.414 257.946,270.643 257.946,257.792 
				257.894,218.061 257.946,218.061 275.302,229.171 292.967,240.486 297.063,243.098 340.071,270.592 340.531,257.792 
				342.016,217.959 358.349,228.659 422.247,270.541 422.247,270.643 			"/>
			<g>
				<g>
					<rect x="117.99" y="296.907" style="fill:#88BBC0;" width="79.754" height="25.775"/>
					<rect x="117.99" y="328.242" style="fill:#88BBC0;" width="79.754" height="25.775"/>
				</g>
				<g>
					<rect x="218.074" y="296.907" style="fill:#88BBC0;" width="79.754" height="25.775"/>
					<rect x="218.074" y="328.242" style="fill:#88BBC0;" width="79.754" height="25.775"/>
				</g>
				<g>
					<rect x="318.157" y="296.907" style="fill:#88BBC0;" width="79.754" height="25.775"/>
					<rect x="318.157" y="328.242" style="fill:#88BBC0;" width="79.754" height="25.775"/>
				</g>
			</g>
		</g>
		<path style="opacity:0.06;fill:#040000;" d="M423.219,257.792l-0.922,12.902l-1.331,17.767l-1.075,14.796l-5.734,78.439h-0.051
			l-0.87,11.725l-0.87,11.366H256V132.864c2.765,0.615,5.325,1.741,7.68,3.226c0.41,0.256,0.819,0.511,1.178,0.768
			c0.358,0.256,0.717,0.512,1.075,0.819c0.768,0.614,1.485,1.28,2.202,1.997c0.512,0.512,1.024,1.024,1.434,1.588
			c0.512,0.614,1.024,1.229,1.434,1.842c0.409,0.615,0.768,1.177,1.075,1.792c0.205,0.358,0.41,0.716,0.614,1.126
			c0.512,0.972,0.922,1.997,1.229,3.021c0.205,0.512,0.358,1.024,0.512,1.536c0.153,0.563,0.307,1.075,0.41,1.638
			c0.153,0.768,0.256,1.485,0.307,2.253c0.102,0.871,0.153,1.69,0.153,2.56v58.676l21.76,14.029v-94.618
			c0-1.536,0.103-3.072,0.358-4.608c-2.867-1.792-4.71-4.966-4.71-8.55v-4.609c0-5.58,4.557-10.189,10.189-10.189h49.613
			c5.581,0,10.189,4.609,10.189,10.189v4.609c0,3.584-1.894,6.758-4.71,8.55c0.205,1.536,0.358,3.072,0.358,4.608v79.821
			L423.219,257.792z"/>
	</g>
</g>
</svg>
