<?xml version="1.0" encoding="iso-8859-1"?>
<!-- Generator: Adobe Illustrator 18.0.0, SVG Export Plug-In . SVG Version: 6.00 Build 0)  -->
<!DOCTYPE svg PUBLIC "-//W3C//DTD SVG 1.1//EN" "http://www.w3.org/Graphics/SVG/1.1/DTD/svg11.dtd">
<svg version="1.1" id="_x31_" xmlns="http://www.w3.org/2000/svg" xmlns:xlink="http://www.w3.org/1999/xlink" x="0px" y="0px"
	 viewBox="0 0 512 512" style="enable-background:new 0 0 512 512;" xml:space="preserve">
<g>
	<rect style="fill:#E17B80;" width="512" height="512"/>
	<path style="opacity:0.1;fill:#231815;" d="M512,285.082V512H278.682l-64.461-64.461l-69.223-69.171
		c-7.424-16.691-11.52-35.174-11.52-54.579c0-70.502,68.045-124.314,88.986-143.411c-3.687-0.973-6.451-4.352-6.451-8.499
		c0-4.915,3.942-8.858,8.857-8.858h0.41c-1.485-3.686-7.373-15.462-25.037-29.747c-0.205-0.103-0.307-0.256-0.461-0.358
		l29.901-29.901l97.639-2.56l18.995,18.995L512,285.082z"/>
	<g>
		<path style="fill:#DAD2C9;" d="M330.009,108.55c-0.658,4.364-3.467,9.027-8.608,13.212c-16.858,13.63-22.478,24.869-23.912,28.396
			c-0.299,0.777-0.419,1.196-0.419,1.196H214.93c0,0-0.12-0.419-0.419-1.196c-1.435-3.527-7.054-14.766-23.912-28.396
			c-0.179-0.12-0.299-0.239-0.419-0.359c-19.01-15.902-3.886-37.363,24.749-29.353c1.375,0.359,2.63,0.658,3.766,0.837
			c15.364,2.272,11.359-13.57,37.303-13.57c27.918,0,21.162,18.293,41.07,12.733c5.5-1.554,10.462-1.972,14.826-1.614
			C324.389,91.573,331.563,99.523,330.009,108.55z"/>
		<path style="fill:#DAD2C9;" d="M385.127,303.556c0,71.319-57.809,129.127-129.127,129.127c-18.532,0-36.167-3.886-52.069-11
			c-29.412-12.913-53.085-36.586-66.058-65.998c-7.054-15.962-10.999-33.597-10.999-52.129c0-67.254,64.982-118.605,84.949-136.838
			c1.196-1.017,2.272-2.033,3.109-2.87h82.139c0.837,0.837,1.913,1.853,3.109,2.87C320.145,184.95,385.127,236.302,385.127,303.556z
			"/>
		<path style="fill:#E26F5C;" d="M306.335,158.587c0,3.946-2.63,7.174-6.157,8.13c-0.717,0.239-1.495,0.359-2.272,0.359h-83.813
			c-0.777,0-1.554-0.12-2.272-0.359c-3.527-0.957-6.157-4.185-6.157-8.13c0-4.663,3.766-8.429,8.429-8.429h83.813
			C302.569,150.158,306.335,153.924,306.335,158.587z"/>
		<path style="fill:#717171;" d="M295.675,342.079c-2.21,4.154-5.269,7.623-9.115,10.47c-3.866,2.826-8.499,4.934-13.891,6.33
			c-2.354,0.589-4.817,0.999-7.322,1.341v15.677h-18.702v-15.37c-5.33-0.444-10.422-1.272-15.212-2.593
			c-7.329-2.005-16.922-10.107-16.922-10.107c-0.821-0.472-1.362-1.314-1.471-2.244c-0.123-0.944,0.198-1.895,0.869-2.559
			l9.375-9.375c1.013-1.012,2.573-1.197,3.798-0.458c0,0,7.014,6.097,12.324,7.534c5.317,1.451,10.593,2.183,15.862,2.183
			c6.631,0,12.119-1.17,16.471-3.51c4.358-2.375,6.528-6.008,6.528-11.003c0-3.579-1.061-6.419-3.216-8.499
			c-2.141-2.073-5.761-3.367-10.88-3.934l-16.793-1.444c-9.942-0.971-17.614-3.742-22.992-8.287
			c-5.406-4.564-8.088-11.483-8.088-20.72c0-5.119,1.033-9.676,3.113-13.686c2.081-4.003,4.899-7.39,8.492-10.148
			c3.592-2.764,7.781-4.845,12.543-6.206c1.984-0.589,4.078-0.965,6.199-1.307v-13.508h18.702v13.227
			c4.372,0.431,8.526,1.129,12.399,2.197c6.555,1.779,13.453,7.178,13.453,7.178c0.869,0.458,1.451,1.301,1.601,2.251
			c0.144,0.972-0.171,1.93-0.849,2.635l-8.793,8.923c-0.938,0.952-2.389,1.198-3.586,0.575c0,0-5.207-3.702-9.703-4.872
			c-4.496-1.176-9.218-1.779-14.199-1.779c-6.494,0-11.298,1.252-14.398,3.736c-3.113,2.484-4.653,5.742-4.653,9.731
			c0,3.6,1.088,6.364,3.312,8.301c2.204,1.93,5.926,3.188,11.195,3.722l14.705,1.266c10.914,0.951,19.174,3.852,24.765,8.683
			c5.604,4.831,8.396,11.893,8.396,21.131C298.994,333.115,297.878,337.932,295.675,342.079z"/>
	</g>
</g>
</svg>
