<?xml version="1.0" encoding="iso-8859-1"?>
<!-- Generator: Adobe Illustrator 18.0.0, SVG Export Plug-In . SVG Version: 6.00 Build 0)  -->
<!DOCTYPE svg PUBLIC "-//W3C//DTD SVG 1.1//EN" "http://www.w3.org/Graphics/SVG/1.1/DTD/svg11.dtd">
<svg version="1.1" id="_x31_" xmlns="http://www.w3.org/2000/svg" xmlns:xlink="http://www.w3.org/1999/xlink" x="0px" y="0px"
	 viewBox="0 0 512 512" style="enable-background:new 0 0 512 512;" xml:space="preserve">
<g>
	<rect style="fill:#E2A867;" width="512" height="512"/>
	<path style="opacity:0.1;fill:#040000;" d="M512,288.359V512H290.304L111.257,332.955c-12.288-22.938-19.2-49.152-19.2-76.955
		c0-90.572,73.37-163.992,163.943-163.992c29.542,0,57.293,7.832,81.254,21.606l30.566,30.566l30.464,30.464L512,288.359z"/>
	<g>
		<path style="fill:#485054;" d="M371.907,140.049l-4.096,4.148l-2.099,2.099c-28.058-28.109-66.867-45.465-109.722-45.465
			c-85.709,0-155.187,69.479-155.187,155.186c0,42.855,17.356,81.665,45.466,109.723l-6.195,6.195
			c-11.469-11.469-21.197-24.525-28.826-38.962c-12.288-22.938-19.2-49.152-19.2-76.955c0-90.573,73.37-163.993,163.943-163.993
			c29.542,0,57.293,7.833,81.254,21.606C349.993,120.849,361.616,129.758,371.907,140.049z"/>
		<path style="fill:#3E464C;" d="M365.716,146.285c28.082,28.082,45.451,66.876,45.451,109.727
			c0,85.702-69.475,155.178-155.178,155.178c-42.851,0-81.646-17.369-109.727-45.451l-6.212,6.212
			c29.672,29.672,70.662,48.024,115.939,48.024c90.554,0,163.963-73.409,163.963-163.963c0-45.277-18.352-86.268-48.024-115.939
			L365.716,146.285z"/>
		<path style="fill:#EDEDEC;" d="M255.989,411.19c85.702,0,155.178-69.475,155.178-155.178c0-42.851-17.369-81.645-45.451-109.727
			L146.262,365.74C174.344,393.821,213.138,411.19,255.989,411.19z"/>
		<path style="fill:#FFFFFF;" d="M100.812,256.012c0,42.851,17.369,81.646,45.45,109.727l219.455-219.454
			c-28.082-28.082-66.876-45.451-109.727-45.451C170.287,100.835,100.812,170.31,100.812,256.012z"/>
		<polygon style="fill:#FFFFFF;" points="243.298,268.28 250.79,255.36 367.346,331.582 		"/>
		<polygon style="fill:#9E324C;" points="246.499,260.238 254.749,247.788 366.549,330.83 		"/>
		<circle style="fill:#3E464C;" cx="255.989" cy="256.013" r="15.228"/>
		<polygon style="fill:#3E464C;" points="246.175,248.832 254.716,269.863 138.313,304.886 		"/>
		<polygon style="fill:#3E464C;" points="266.019,263.539 246.499,249.812 312.581,176.59 		"/>
		<path style="fill:#3E464C;" d="M220.815,129.297c-2.114,0-3.973-1.429-4.521-3.474c-0.324-1.209-0.157-2.472,0.469-3.555
			c0.626-1.085,1.636-1.86,2.845-2.184c0.399-0.106,0.809-0.161,1.217-0.161c2.113,0,3.973,1.429,4.521,3.475
			c0.324,1.209,0.158,2.471-0.468,3.555c-0.626,1.083-1.636,1.859-2.845,2.183C221.633,129.243,221.224,129.297,220.815,129.297z"/>
		<path style="fill:#3E464C;" d="M291.153,391.799c-2.114,0-3.973-1.43-4.522-3.475c-0.324-1.209-0.157-2.472,0.469-3.555
			c0.626-1.085,1.636-1.86,2.845-2.184c0.399-0.106,0.809-0.161,1.217-0.161c2.114,0,3.973,1.43,4.522,3.475
			c0.668,2.495-0.818,5.07-3.314,5.739C291.971,391.744,291.561,391.799,291.153,391.799z"/>
		<path style="fill:#3E464C;" d="M124.744,225.379c-0.408,0-0.818-0.054-1.217-0.161c-1.21-0.324-2.22-1.099-2.846-2.183
			c-0.626-1.085-0.793-2.346-0.469-3.555c0.548-2.046,2.408-3.475,4.522-3.475c0.408,0,0.818,0.055,1.217,0.161
			c1.209,0.324,2.219,1.099,2.845,2.184c0.626,1.083,0.793,2.346,0.469,3.555C128.716,223.95,126.857,225.379,124.744,225.379z"/>
		<path style="fill:#3E464C;" d="M387.244,295.717c-0.408,0-0.818-0.055-1.217-0.161c-2.496-0.669-3.982-3.244-3.314-5.739
			c0.549-2.045,2.408-3.475,4.522-3.475c0.408,0,0.818,0.055,1.217,0.161c1.209,0.324,2.219,1.099,2.845,2.184
			c0.626,1.083,0.793,2.346,0.469,3.555C391.217,294.287,389.358,295.717,387.244,295.717z"/>
		<path style="fill:#3E464C;" d="M124.734,295.717c-2.114,0-3.974-1.429-4.522-3.475c-0.324-1.209-0.157-2.472,0.469-3.555
			c0.626-1.084,1.636-1.86,2.845-2.184c0.399-0.106,0.809-0.161,1.217-0.161c2.114,0,3.973,1.43,4.522,3.475
			c0.668,2.495-0.818,5.07-3.314,5.739C125.552,295.662,125.143,295.717,124.734,295.717z"/>
		<path style="fill:#3E464C;" d="M387.234,225.379c-2.113,0-3.972-1.429-4.521-3.474c-0.324-1.209-0.157-2.472,0.469-3.555
			c0.626-1.085,1.636-1.86,2.845-2.184c0.399-0.106,0.809-0.161,1.217-0.161c2.114,0,3.973,1.43,4.522,3.475
			c0.324,1.209,0.157,2.471-0.469,3.555c-0.626,1.083-1.636,1.859-2.845,2.183C388.052,225.325,387.642,225.379,387.234,225.379z"/>
		<path style="fill:#3E464C;" d="M220.826,391.799c-0.408,0-0.818-0.055-1.217-0.161c-2.496-0.669-3.982-3.244-3.314-5.739
			c0.548-2.047,2.408-3.475,4.522-3.475c0.408,0,0.818,0.055,1.217,0.161c1.209,0.324,2.219,1.099,2.845,2.183
			c0.626,1.085,0.792,2.347,0.468,3.557C224.798,390.37,222.938,391.799,220.826,391.799z"/>
		<path style="fill:#3E464C;" d="M291.163,129.297c-0.408,0-0.818-0.054-1.217-0.161c-1.21-0.324-2.22-1.099-2.846-2.183
			c-0.626-1.084-0.793-2.346-0.469-3.555c0.549-2.045,2.408-3.475,4.522-3.475c0.408,0,0.818,0.055,1.217,0.161
			c1.209,0.324,2.219,1.099,2.845,2.184c0.626,1.083,0.793,2.346,0.469,3.555C295.135,127.868,293.276,129.297,291.163,129.297z"/>
		<path style="fill:#3E464C;" d="M188.055,142.871c-1.672,0-3.229-0.898-4.063-2.344c-0.627-1.083-0.793-2.346-0.469-3.555
			c0.324-1.208,1.099-2.219,2.183-2.844c0.713-0.412,1.521-0.629,2.337-0.629c1.673,0,3.229,0.897,4.063,2.343
			c0.627,1.085,0.793,2.347,0.469,3.557c-0.324,1.208-1.099,2.218-2.184,2.844C189.679,142.653,188.871,142.871,188.055,142.871z"/>
		<path style="fill:#3E464C;" d="M323.936,378.223c-1.672,0-3.229-0.898-4.063-2.344c-1.293-2.238-0.524-5.109,1.714-6.401
			c0.713-0.411,1.52-0.628,2.336-0.628c1.672,0,3.23,0.898,4.064,2.344c0.627,1.084,0.793,2.347,0.469,3.556
			c-0.324,1.208-1.099,2.218-2.184,2.844C325.559,378.005,324.751,378.223,323.936,378.223z"/>
		<path style="fill:#3E464C;" d="M138.307,192.606c-0.816,0-1.624-0.217-2.337-0.629c-1.083-0.625-1.859-1.636-2.183-2.844
			c-0.324-1.209-0.158-2.472,0.469-3.557c0.834-1.446,2.392-2.344,4.064-2.344c0.816,0,1.622,0.217,2.335,0.629
			c1.085,0.626,1.86,1.636,2.184,2.845c0.324,1.209,0.158,2.472-0.468,3.555C141.536,191.708,139.979,192.606,138.307,192.606z"/>
		<path style="fill:#3E464C;" d="M373.659,328.487c-0.816,0-1.624-0.217-2.337-0.629c-2.237-1.291-3.006-4.163-1.715-6.4
			c0.834-1.446,2.392-2.344,4.065-2.344c0.816,0,1.622,0.217,2.335,0.629c1.084,0.626,1.86,1.636,2.184,2.845
			c0.324,1.209,0.158,2.472-0.468,3.555C376.888,327.589,375.331,328.487,373.659,328.487z"/>
		<path style="fill:#3E464C;" d="M138.32,328.487c-1.672,0-3.229-0.898-4.063-2.344c-1.293-2.238-0.524-5.109,1.714-6.401
			c0.713-0.411,1.52-0.628,2.336-0.628c1.672,0,3.23,0.898,4.064,2.344c0.627,1.084,0.793,2.347,0.469,3.557
			c-0.324,1.208-1.099,2.218-2.184,2.844C139.943,328.27,139.135,328.487,138.32,328.487z"/>
		<path style="fill:#3E464C;" d="M373.672,192.606c-1.673,0-3.229-0.898-4.064-2.344c-1.292-2.238-0.523-5.109,1.715-6.401
			c0.713-0.411,1.52-0.628,2.336-0.628c1.672,0,3.23,0.898,4.064,2.344c0.627,1.085,0.793,2.347,0.469,3.557
			c-0.324,1.208-1.099,2.218-2.184,2.844C375.295,192.389,374.487,192.606,373.672,192.606z"/>
		<path style="fill:#3E464C;" d="M188.043,378.223c-0.816,0-1.624-0.217-2.337-0.629c-1.083-0.625-1.859-1.636-2.183-2.844
			c-0.324-1.209-0.158-2.472,0.469-3.556c0.834-1.446,2.392-2.344,4.064-2.344c0.816,0,1.622,0.217,2.335,0.629
			c1.085,0.626,1.86,1.636,2.184,2.845c0.324,1.209,0.158,2.472-0.468,3.555C191.272,377.325,189.715,378.223,188.043,378.223z"/>
		<path style="fill:#3E464C;" d="M323.923,142.871c-0.816,0-1.624-0.217-2.337-0.629c-1.083-0.625-1.859-1.636-2.183-2.844
			c-0.324-1.209-0.158-2.472,0.469-3.557c0.834-1.446,2.391-2.343,4.063-2.343c0.816,0,1.623,0.217,2.336,0.628
			c1.084,0.627,1.86,1.637,2.184,2.845c0.324,1.209,0.158,2.472-0.468,3.555C327.153,141.973,325.596,142.871,323.923,142.871z"/>
		<rect x="251.303" y="115.294" style="fill:#3E464C;" width="9.371" height="33.384"/>
		<rect x="251.303" y="363.042" style="fill:#3E464C;" width="9.371" height="33.384"/>
		
			<rect x="163.711" y="151.575" transform="matrix(-0.7071 0.7071 -0.7071 -0.7071 406.455 168.1753)" style="fill:#3E464C;" width="9.372" height="33.386"/>
		
			<rect x="338.895" y="326.76" transform="matrix(-0.7071 0.7071 -0.7071 -0.7071 829.3872 343.3614)" style="fill:#3E464C;" width="9.372" height="33.384"/>
		
			<rect x="151.704" y="338.767" transform="matrix(-0.7071 0.7071 -0.7071 -0.7071 530.3264 467.243)" style="fill:#3E464C;" width="33.385" height="9.372"/>
		
			<rect x="326.889" y="163.582" transform="matrix(-0.7071 0.7071 -0.7071 -0.7071 705.5101 44.2939)" style="fill:#3E464C;" width="33.385" height="9.372"/>
		<rect x="115.423" y="251.174" style="fill:#3E464C;" width="33.384" height="9.371"/>
		<rect x="363.17" y="251.174" style="fill:#3E464C;" width="33.384" height="9.371"/>
	</g>
</g>
</svg>
