<?xml version="1.0" encoding="iso-8859-1"?>
<!-- Generator: Adobe Illustrator 18.0.0, SVG Export Plug-In . SVG Version: 6.00 Build 0)  -->
<!DOCTYPE svg PUBLIC "-//W3C//DTD SVG 1.1//EN" "http://www.w3.org/Graphics/SVG/1.1/DTD/svg11.dtd">
<svg version="1.1" id="_x31_" xmlns="http://www.w3.org/2000/svg" xmlns:xlink="http://www.w3.org/1999/xlink" x="0px" y="0px"
	 viewBox="0 0 512 512" style="enable-background:new 0 0 512 512;" xml:space="preserve">
<g>
	<rect style="fill:#9CD1AB;" width="512" height="512"/>
	<path style="opacity:0.1;fill:#040000;" d="M512,201.831V512H251.955L92.928,352.974c-2.918-5.889-3.277-12.75-0.41-18.689
		c13.261-27.596,24.115-46.848,43.469-68.608c15.565-17.409,32.973-32.82,51.712-45.671c18.944-13.005,35.635-20.94,46.387-25.292
		l-0.87-1.485c-1.639-2.917-0.768-6.4,1.946-7.783l21.452-11.059l7.117,12.289l66.918-66.919l71.783-27.495l6.707,6.708l3.891,3.891
		l6.707,6.708L512,201.831z"/>
	<path style="fill:none;" d="M291.57,228.786L291.57,228.786l10.086-10.085c-1.6-1.125-3.141-2.37-4.572-3.801l-10.819,10.819
		L291.57,228.786z"/>
	<path style="fill:none;" d="M283.196,220.414l3.067,5.305h0.001l10.819-10.819c-1.431-1.431-2.676-2.972-3.802-4.572
		L283.196,220.414z"/>
	<path style="fill:#E6BAB0;" d="M367.567,147.589c0.024-0.024,0.048-0.048,0.072-0.071v-0.001
		C367.615,147.541,367.592,147.565,367.567,147.589z"/>
	<g>
		<g>
			<g>
				<path style="fill:#EDEDEC;" d="M357.288,211.321l-60.314,60.314l-14.828-14.828c1.756-3.641,3.102-6.714,4.092-9.101
					l-6.254-3.422l4.73-8.641l29.5-29.5L357.288,211.321z"/>
				<path style="fill:#EDEDEC;" d="M305.84,197.769l-29.5,29.5l-8.641,4.73l-3.422-6.253c-2.384,0.994-5.457,2.34-9.101,4.092
					l-14.828-14.828l60.314-60.314L305.84,197.769z"/>
			</g>
			<g>
				<path style="fill:#F6F5F5;" d="M416.205,91.904c-0.358,0.511-0.768,1.024-1.28,1.588c-1.485,1.791-9.933,10.291-12.902,13.26
					c-4.71-4.71-14.746-2.355-22.374,5.274c-7.629,7.629-9.933,17.613-5.222,22.375c-0.973,0.973-1.997,1.945-2.969,2.97
					c0.051-0.053,0.051-0.053,0.051-0.102c-2.202-2.202-6.861-1.128-10.445,2.457c-3.584,3.584-4.659,8.294-2.458,10.495
					c-2.816,2.816-5.376,5.376-7.475,7.475c-4.403,4.404-7.066,7.066-7.066,7.066l-6.093,1.69l-26.368,7.424l-8.397,2.304
					l-8.755,2.458l-20.889,5.889l-3.84,1.075l-6.81,1.894l74.803-74.802l71.782-27.495l4.403-1.689
					C417.28,86.887,418.97,87.962,416.205,91.904z"/>
				<path style="fill:#F6F5F5;" d="M399.977,132.321c7.626-7.626,9.971-17.645,5.238-22.378
					c2.976-2.974,11.509-11.423,13.265-12.897c5.267-4.422,6.229-2.755,10.021,1.038l-29.205,76.187l-74.781,74.781l22.701-81.111
					c0,0,5.864-5.864,14.557-14.557c2.217,2.216,6.908,1.118,10.48-2.453c3.571-3.571,4.669-8.263,2.453-10.48
					c-0.024,0.024-0.048,0.048-0.072,0.072c0.986-0.986,1.976-1.976,2.965-2.965C382.332,142.292,392.351,139.947,399.977,132.321z"
					/>
			</g>
			<g>
				<circle style="fill:#D4D4D4;" cx="328.483" cy="183.5" r="34.413"/>
				<circle style="fill:#F6F5F5;" cx="328.483" cy="183.5" r="19.481"/>
			</g>
			<g>
				<g>
					<path style="fill:#728C9F;" d="M253.354,368.921c-21.718,19.356-41.018,30.2-68.61,43.468
						c-8.314,3.997-18.479,1.686-25.196-5.031c-1.6-1.606-3.009-3.461-4.148-5.54c-5.903-10.794-2.341-23.557,7.961-28.513
						c54.331-26.124,80.969-55.904,98.531-81.065c9.756-13.984,16.182-26.442,20.144-35.324c1.523-3.408,2.678-6.291,3.523-8.532
						c1.14-3.02,1.711-4.873,1.832-5.28l28.057,10.055l13.459,4.826c-0.125,0.449-1.453,5.155-4.563,12.829
						c-4.379,10.792-12.277,27.457-25.292,46.408C286.174,335.974,270.797,353.37,253.354,368.921z"/>
				</g>
				<g>
					<path style="fill:#728C9F;" d="M268.954,224.563l-0.051,0.051c-0.307,0.102-1.843,0.564-4.403,1.485
						c-0.307,0.102-0.614,0.205-0.922,0.307c-2.202,0.87-5.12,1.996-8.499,3.533c-8.909,3.994-21.35,10.394-35.328,20.173
						c-25.191,17.561-54.938,44.186-81.05,98.509c-4.813,9.985-16.947,13.671-27.546,8.449c-0.307-0.102-0.666-0.307-0.973-0.461
						c-2.099-1.177-3.943-2.56-5.581-4.197c-1.946-1.946-3.482-4.148-4.608-6.503c-2.919-5.889-3.277-12.75-0.41-18.689
						c13.261-27.596,24.115-46.847,43.469-68.607c15.565-17.409,32.973-32.82,51.712-45.671
						c18.944-13.005,35.635-20.94,46.387-25.293c7.68-3.122,12.39-4.455,12.851-4.556l4.813,13.414v0.051l10.086,28.006
						C268.954,224.563,268.954,224.563,268.954,224.563z"/>
				</g>
				<path style="opacity:0.1;fill:#040000;" d="M268.954,224.563c0,0,0,0-0.051,0l-10.086-28.006v-0.051l-4.813-13.414
					c-0.461,0.101-5.171,1.434-12.851,4.556c-2.427,0.982-5.196,2.176-8.186,3.541l0.506,0.864l9.728,16.794l12.149,20.976
					c3.256-1.469,6.09-2.571,8.228-3.416c0.307-0.103,0.614-0.205,0.922-0.307c2.56-0.921,4.096-1.383,4.403-1.485L268.954,224.563z
					"/>
				<path style="fill:#728C9F;" d="M293.53,218.983l-1.075,0.511l-17.255,8.909l-8.038,4.147l-3.584-6.144l-0.154-0.307
					l-12.544-21.658l-9.728-16.794l-0.87-1.485c-1.638-2.917-0.768-6.4,1.946-7.783l21.452-11.059l7.117,12.289l1.792,3.122v0.051
					l0.973,1.741l16.691,28.825l3.072,5.325L293.53,218.983z"/>
				<path style="opacity:0.1;fill:#040000;" d="M328.908,257.985l-13.459-4.826l-28.057-10.055c-0.121,0.406-0.692,2.26-1.833,5.28
					c-0.741,1.966-1.771,4.504-3.029,7.38l0.564,0.326l21.962,12.702l16.138,9.333c1.189-2.64,2.263-5.124,3.151-7.31
					C327.454,263.14,328.782,258.434,328.908,257.985z"/>
				<path style="fill:#728C9F;" d="M325.848,271.686l-1.503-0.871l-16.823-9.728l-21.962-12.703l-6.132-3.544l4.153-8.064
					l8.898-17.272l0.532-1.034l0.318,0.184l5.307,3.067l30.571,17.68l15.435,8.926l-11.028,21.408
					C332.209,272.466,328.714,273.34,325.848,271.686z"/>
			</g>
		</g>
		<path style="opacity:0.05;fill:#040000;" d="M418.479,97.045c-1.755,1.474-10.289,9.922-13.265,12.897
			c4.733,4.732,2.388,14.752-5.238,22.377c-7.626,7.626-17.645,9.971-22.379,5.238c-0.965,0.965-1.931,1.931-2.893,2.894
			c2.217,2.216,1.118,6.908-2.453,10.479c-3.571,3.571-8.263,4.67-10.48,2.452c-2.833,2.833-5.323,5.324-7.45,7.45
			c-0.493-0.56-0.971-1.13-1.506-1.666l-48.667,48.668c1.431,1.431,2.972,2.676,4.572,3.801l-10.085,10.085h-0.001l-5.306-3.068
			l-0.853,0.854l-8.896,17.269l-4.153,8.065l6.132,3.544c-0.845,2.241-2,5.124-3.523,8.533c-3.962,8.883-10.388,21.34-20.144,35.324
			c-17.562,25.16-44.199,54.941-98.531,81.065c-10.302,4.956-13.865,17.719-7.962,28.513c1.139,2.08,2.548,3.935,4.148,5.54
			c6.717,6.717,16.883,9.028,25.197,5.031c27.592-13.269,46.892-24.112,68.61-43.469c17.443-15.55,32.819-32.946,45.698-51.697
			c13.015-18.951,20.913-35.616,25.292-46.408l1.503,0.87c2.867,1.655,6.362,0.781,7.767-1.95l11.028-21.409l-12.293-7.109
			l66.948-66.948l29.205-76.187C424.708,94.29,423.747,92.623,418.479,97.045z"/>
	</g>
</g>
</svg>
